<svg xmlns:mydata="http://www.w3.org/2000/svg" mydata:contrastcolor="F2CD00" mydata:template="Default" mydata:presentation="2.5" mydata:layouttype="undefined" mydata:specialfontid="undefined" mydata:id1="384" mydata:id2="123" mydata:companyname="agricolar" mydata:companytagline="produzindo com seguranca" xmlns="http://www.w3.org/2000/svg" viewBox="0 35 550 400">
  <g data-paper-data="{&quot;isGlobalGroup&quot;:true,&quot;bounds&quot;:{&quot;x&quot;:145.9999237665246,&quot;y&quot;:106,&quot;width&quot;:258.00015246695074,&quot;height&quot;:258}}" fill="#85714d" fill-rule="none" stroke-miterlimit="10" font-family="none" font-weight="none" font-size="none" text-anchor="none" style="mix-blend-mode:normal">
    <g data-paper-data="{&quot;isIcon&quot;:&quot;true&quot;,&quot;selectedEffects&quot;:{&quot;container&quot;:&quot;&quot;,&quot;transformation&quot;:&quot;&quot;,&quot;pattern&quot;:&quot;&quot;},&quot;fillRule&quot;:&quot;evenodd&quot;,&quot;fillRuleOriginal&quot;:&quot;evenodd&quot;,&quot;iconType&quot;:&quot;icon&quot;,&quot;rawIconId&quot;:&quot;combine_af7e5e49-91fa-4746-8b3b-135265e4ce4c&quot;,&quot;iconStyle&quot;:&quot;standalone&quot;,&quot;bounds&quot;:{&quot;x&quot;:209.08971131791662,&quot;y&quot;:186.4613839035085,&quot;width&quot;:131.82042964470583,&quot;height&quot;:115.87488254726176},&quot;suitableAsStandaloneIcon&quot;:true}" fill-rule="evenodd">
      <path d="M239.424 302.336s11.6-42.965 11.472-49.474c-.13-6.504-4.879-9.844-4.879-9.844-13.61-7.702-17.462-11.47-23.969-19.089-6.506-7.618-8.387-19.601-11.468-23.11-3.081-3.51-.429-3.125-.429-3.125 4.409.298 7.704 5.263 8.133 5.521.427.258 1.54.513 1.54-.856 0-.454-.004-1.183-.009-2.091v-.016c-.014-2.703-.036-6.98.009-10.304.042-3.297.8-3.894 1.928-3.265 1.323.739 2.921 4.096 3.292 5.062.317.821.836 1.221 1.328.513.346-.5 1.615-.808 2.354.17.79 1.05 1.626 4.368 1.626 4.368s1.615.024 2.14.64c.985 1.154.88 3.812.686 6.892-.343 5.455.807 8.515 1.972 11.615.142.378.284.756.424 1.14 1.154 3.166 3.851 3.637 3.722 2.995-.443-2.222-.812-12.54-.661-14.457.176-2.226 1.519-4.118 4.044-1.809 2.191 2.006 1.926 5.222 2.824 11.814.972 7.142 7.866 8.74 10.956 10.228 4.709 2.269 9.923 9.298 11.641 17.076 1.712 7.75-1.027 59.406-1.027 59.406zm71.15 0s-11.6-42.965-11.47-49.474c.127-6.504 4.878-9.844 4.878-9.844 13.61-7.702 17.463-11.47 23.968-19.089 6.506-7.618 8.388-19.601 11.47-23.11 3.081-3.51.428-3.125.428-3.125-4.409.298-7.702 5.263-8.131 5.521-.429.258-1.54.513-1.54-.856 0-.454.004-1.183.008-2.091.014-2.703.035-6.989-.008-10.32-.043-3.297-.802-3.894-1.93-3.265-1.324.739-2.92 4.096-3.291 5.062-.318.821-.835 1.221-1.327.513-.348-.5-1.617-.808-2.354.17-.79 1.05-1.626 4.368-1.626 4.368s-1.617.024-2.141.64c-.985 1.154-.878 3.812-.685 6.892.343 5.45-.806 8.51-1.97 11.607-.142.38-.285.762-.426 1.148-1.156 3.166-3.851 3.637-3.723 2.995.445-2.222.813-12.54.66-14.457-.173-2.226-1.517-4.118-4.042-1.809-2.193 2.006-1.926 5.222-2.824 11.814-.975 7.142-7.868 8.74-10.956 10.228-4.707 2.269-9.923 9.298-11.641 17.076-1.715 7.75 1.025 59.406 1.025 59.406zm-38.256-74.473a25.931 25.931 0 0 1-17.884-12.155 25.94 25.94 0 0 1-1.533-23.932 25.96 25.96 0 0 1 22.056 36.324 19.86 19.86 0 0 1-.432.04c-.154-.013-.31-.027-.465-.043l-10.184-20.303a.725.725 0 1 0-1.296.65zm2.924-23.308a.716.716 0 0 0 .414-.318 25.94 25.94 0 0 1 20.49-12.461 25.96 25.96 0 0 1-19.525 36.109 27.49 27.49 0 0 0 1.673-6.174.725.725 0 0 0 .288-.452c1.135-6.066 3.705-10.311 5.66-12.797 2.123-2.701 4.003-3.98 4.022-3.993a.726.726 0 0 0-.808-1.206c-.083.053-2.053 1.385-4.314 4.246a29.835 29.835 0 0 0-4.61 8.387 27.365 27.365 0 0 0-3.29-11.34z" data-paper-data="{&quot;isPathIcon&quot;:true}"/>
    </g>
    <g data-paper-data="{&quot;isPrimaryText&quot;:true}" fill-rule="nonzero">
      <path d="m182.172 216.625.579-1.885-14.397-12.157a.391.391 0 0 1-.117-.416c.053-.173.166-.274.355-.27l18.714-1.989.58-1.885-19.526 2.065c-.843.094-1.57.604-1.844 1.497-.274.892.01 1.821.656 2.372zm.945-3.075.586-1.91-8.786-7.448 11.445-1.208.586-1.91-16.471 1.754z" data-paper-data="{&quot;glyphName&quot;:&quot;A&quot;,&quot;glyphIndex&quot;:0,&quot;firstGlyphOfWord&quot;:true,&quot;word&quot;:1}"/>
      <path d="M199.088 179.683c2.058-2.867 2.334-6.5 1.113-9.517a.875.875 0 0 0-.282-.362l-3.858-2.769-1.059 1.476 3.605 2.587c.899 2.53.534 5.397-.994 7.526-2.602 3.626-7.671 4.459-11.297 1.857a8.089 8.089 0 0 1-1.857-11.297 8.124 8.124 0 0 1 5.37-3.3l-.255-1.78a9.831 9.831 0 0 0-6.59 4.021 9.91 9.91 0 0 0 2.273 13.831 9.91 9.91 0 0 0 13.831-2.273zm-2.319-1.664a7.041 7.041 0 0 0 .98-6.26l-3.352-2.405-1.059 1.476 2.825 2.027a5.232 5.232 0 0 1-.87 4.103c-1.678 2.34-4.973 2.881-7.313 1.202-2.34-1.68-2.881-4.974-1.202-7.314a5.15 5.15 0 0 1 3.464-2.113l-.261-1.816a7.067 7.067 0 0 0-4.679 2.87c-2.254 3.14-1.543 7.58 1.619 9.849 3.14 2.254 7.594 1.522 9.848-1.62z" data-paper-data="{&quot;glyphName&quot;:&quot;G&quot;,&quot;glyphIndex&quot;:1,&quot;word&quot;:1}"/>
      <path d="m213.223 163.332 1.477-1.057-9.816-13.714a.538.538 0 0 1 .12-.724l6.309-4.516a5.017 5.017 0 0 1 7.059 1.17c1.63 2.278 1.136 5.153-1.248 6.86l-.275.196 8.611 3.026 1.667-1.193-7.21-2.497c1.502-2.224 1.623-5.086-.069-7.45a6.854 6.854 0 0 0-9.593-1.589l-6.308 4.516a2.359 2.359 0 0 0-.54 3.258zm-2.587-8.518 5.844-4.184c1.878-1.344 2.331-3.742 1.048-5.535-1.314-1.836-3.818-2.213-5.654-.9l-5.844 4.184zm.495-2.429-2.567-3.587 4.41-3.156a2.204 2.204 0 0 1 3.077.51c.71.991.482 2.367-.51 3.077zm4.413 9.286 1.477-1.058-3.368-4.705 2.49-1.781 6.638 2.364 1.73-1.239-8.653-2.995-4.663 3.337z" data-paper-data="{&quot;glyphName&quot;:&quot;R&quot;,&quot;glyphIndex&quot;:2,&quot;word&quot;:1}"/>
      <path d="m233.688 130.943 14.833-4.726-.551-1.73-14.833 4.726zm4.41 13.844 6.923-2.205-4.096-12.855-6.922 2.205.551 1.73 5.192-1.653 2.993 9.394-5.192 1.654zm7.912-2.52 6.922-2.206-.552-1.73-5.191 1.654-2.993-9.394 5.191-1.654-.551-1.73-6.922 2.205zm-7.045 5.24 14.833-4.726-.551-1.73-14.833 4.725z" data-paper-data="{&quot;glyphName&quot;:&quot;I&quot;,&quot;glyphIndex&quot;:3,&quot;word&quot;:1}"/>
      <path d="M276.853 141.065a9.843 9.843 0 0 0 7.895-3.824l-1.417-1.102a8.112 8.112 0 0 1-6.462 3.11c-4.463-.04-8.064-3.703-8.025-8.166a8.089 8.089 0 0 1 8.165-8.024 8.03 8.03 0 0 1 6.099 2.855l1.385-1.182c-1.796-2.273-4.484-3.464-7.468-3.49a9.91 9.91 0 0 0-9.997 9.826 9.91 9.91 0 0 0 9.825 9.997zm.025-2.854a6.967 6.967 0 0 0 5.602-2.728l-1.417-1.102a5.236 5.236 0 0 1-4.17 2.013c-2.88-.025-5.22-2.406-5.195-5.286.025-2.88 2.407-5.22 5.286-5.195a5.17 5.17 0 0 1 3.928 1.85l1.412-1.181c-1.362-1.569-3.274-2.468-5.324-2.486-3.866-.033-7.084 3.105-7.118 6.996-.034 3.866 3.13 7.085 6.996 7.119z" data-paper-data="{&quot;glyphName&quot;:&quot;C&quot;,&quot;glyphIndex&quot;:4,&quot;word&quot;:1}"/>
      <path d="M305.763 146.32a9.91 9.91 0 0 0 12.612-6.116c1.837-5.294-1.066-10.86-6.116-12.612a9.91 9.91 0 0 0-12.612 6.117 9.91 9.91 0 0 0 6.116 12.612zm.595-1.715c-4.216-1.463-6.457-6.085-4.995-10.301a8.089 8.089 0 0 1 10.3-4.996 8.072 8.072 0 0 1 4.996 10.301 8.089 8.089 0 0 1-10.3 4.996zm.34-.98c3.678 1.275 7.714-.703 8.98-4.356a7.065 7.065 0 0 0-4.354-8.98c-3.653-1.267-7.705.678-8.98 4.355-1.267 3.653.702 7.713 4.355 8.98zm.596-1.717c-2.721-.943-4.178-3.948-3.235-6.669.944-2.72 3.949-4.178 6.67-3.234 2.72.944 4.178 3.948 3.234 6.67-.944 2.72-3.948 4.177-6.67 3.233z" data-paper-data="{&quot;glyphName&quot;:&quot;O&quot;,&quot;glyphIndex&quot;:5,&quot;word&quot;:1}"/>
      <path d="m328.408 157.091 9.9 7.6 1.105-1.441-9.9-7.6c-.205-.158-.253-.521-.095-.727l10.27-13.378-1.441-1.106-10.27 13.378a2.359 2.359 0 0 0 .43 3.274zm2.15-1.948 9.487 7.284 1.106-1.441-8.047-6.178 8.848-11.525-1.441-1.106z" data-paper-data="{&quot;glyphName&quot;:&quot;L&quot;,&quot;glyphIndex&quot;:6,&quot;word&quot;:1}"/>
      <path d="m346.624 173.148 1.13 1.616 18.442-3.863a.391.391 0 0 1 .4.164c.104.148.114.3-.005.446l-9.952 15.973 1.13 1.616 10.39-16.659c.445-.722.49-1.608-.045-2.374s-1.442-1.113-2.273-.944zm1.842 2.637 1.145 1.638 11.278-2.34-6.093 9.763 1.144 1.638 8.756-14.06z" data-paper-data="{&quot;glyphName&quot;:&quot;A&quot;,&quot;glyphIndex&quot;:7,&quot;word&quot;:1}"/>
      <path d="m362.97 200.135.514 1.743 16.177-4.768a.538.538 0 0 1 .644.35l2.194 7.442a5.017 5.017 0 0 1-3.423 6.283c-2.688.793-5.24-.619-6.07-3.431l-.095-.324-5.686 7.14.58 1.966 4.725-5.991c1.608 2.15 4.272 3.204 7.06 2.383a6.854 6.854 0 0 0 4.65-8.54l-2.193-7.44a2.359 2.359 0 0 0-2.9-1.58zm8.896.354 2.032 6.894c.653 2.215 2.769 3.43 4.884 2.807 2.166-.638 3.345-2.88 2.706-5.044l-2.032-6.894zm2.131 1.265 4.23-1.247 1.534 5.202a2.204 2.204 0 0 1-1.492 2.739 2.204 2.204 0 0 1-2.739-1.492zm-10.22 1.119.514 1.742 5.55-1.636.865 2.937-4.413 5.493.602 2.041 5.671-7.19-1.621-5.5z" data-paper-data="{&quot;glyphName&quot;:&quot;R&quot;,&quot;glyphIndex&quot;:8,&quot;lastGlyphOfWord&quot;:true,&quot;word&quot;:1}"/>
    </g>
    <g data-paper-data="{&quot;isContainerElementsWrapper&quot;:true}" fill-rule="evenodd">
      <path d="M275 106c-17.486 0-34.226 3.382-50.22 10.147-15.436 6.53-29.102 15.741-40.997 27.636s-21.106 25.56-27.635 40.997C149.382 200.774 146 217.514 146 235c0 17.485 3.382 34.225 10.148 50.22 6.529 15.436 15.74 29.101 27.635 40.996 11.895 11.895 25.56 21.107 40.997 27.636C240.774 360.617 257.514 364 275 364c17.485 0 34.226-3.383 50.22-10.148 15.437-6.529 29.102-15.74 40.996-27.636 11.895-11.894 21.107-25.56 27.636-40.996C400.618 269.225 404 252.485 404 235c0-17.486-3.382-34.226-10.148-50.22-6.529-15.437-15.74-29.102-27.635-40.997-11.895-11.895-25.561-21.107-40.997-27.636C309.225 109.382 292.485 106 275 106zm-75.849 96.968c-4.14 9.789-6.29 20.036-6.45 30.742h-44.115c.163-16.67 3.475-32.646 9.938-47.925 6.398-15.128 15.426-28.52 27.083-40.178 11.658-11.657 25.05-20.685 40.178-27.083 15.673-6.63 32.078-9.944 49.215-9.944s33.542 3.314 49.215 9.944c15.127 6.398 28.52 15.426 40.177 27.083 11.658 11.658 20.686 25.05 27.084 40.178 6.463 15.279 9.776 31.254 9.938 47.925H357.3c-.16-10.706-2.31-20.953-6.45-30.742-4.164-9.844-10.047-18.567-17.648-26.169-7.602-7.601-16.326-13.484-26.17-17.648-10.18-4.306-20.858-6.46-32.031-6.46-11.174 0-21.85 2.154-32.031 6.46-9.845 4.164-18.568 10.047-26.17 17.648-7.601 7.602-13.484 16.325-17.648 26.17zm132.224-24.344c7.365 7.364 13.064 15.814 17.098 25.35 4.17 9.859 6.255 20.201 6.255 31.026 0 10.824-2.085 21.167-6.256 31.026-4.033 9.536-9.732 17.985-17.096 25.35-7.364 7.364-15.814 13.063-25.35 17.096-9.86 4.17-20.201 6.256-31.026 6.256s-21.167-2.085-31.026-6.256c-9.536-4.033-17.986-9.732-25.35-17.096-7.365-7.364-13.064-15.814-17.097-25.35-4.17-9.86-6.255-20.202-6.255-31.026 0-10.825 2.085-21.167 6.255-31.026 4.033-9.536 9.732-17.986 17.097-25.35 7.364-7.365 15.814-13.064 25.35-17.097 9.86-4.17 20.201-6.255 31.026-6.255s21.167 2.085 31.026 6.255c9.536 4.033 17.985 9.732 25.35 17.097zM176.728 278.99c-.006-.068-.052-.201-.14-.398l-.883-1.996a.751.751 0 0 1-.079-.35c.008-.1.068-.175.182-.225a.343.343 0 0 1 .224-.03c.017.11.046.21.086.301.04.091.082.157.124.2a.337.337 0 0 0 .163.09c.138.033.328-.004.568-.111l3.899-1.726c.24-.107.328-.316.261-.627-.043-.194-.053-.33-.03-.404.022-.075.06-.125.115-.148.12-.054.209-.068.268-.045.008.052.02.098.038.137l.426.963.651 1.365c.536 1.211.546 2.124.028 2.737a1.766 1.766 0 0 1-.638.491 3.432 3.432 0 0 1-.632.22 2.035 2.035 0 0 1-1.161-.08 2.088 2.088 0 0 1-.595-.342c-.421-.336-.783-.844-1.084-1.526l-.065-.147c-.032-.072-.002-.13.091-.17.205-.091.345-.087.42.013.41.983.96 1.443 1.652 1.382a2.1 2.1 0 0 0 .647-.175c.215-.095.402-.206.561-.332.16-.126.282-.281.368-.465.186-.404.142-.917-.133-1.538-.111-.252-.24-.394-.385-.43-.13-.034-.342.013-.634.142l-3.88 1.718c-.196.102-.248.317-.155.645.084.294.124.482.12.564a.364.364 0 0 1-.04.176.234.234 0 0 1-.105.083.385.385 0 0 1-.253.038zm196.241-.691c.067-.1.113-.177.137-.232a.774.774 0 0 0 .056-.168.5.5 0 0 0 .008-.167c-.015-.118-.083-.205-.204-.26a.835.835 0 0 0-.379-.059l-1.065-.044-1.109 2.448.903.931c.081.087.145.14.19.161.045.02.082.028.11.024a.196.196 0 0 0 .086-.04.523.523 0 0 0 .089-.093l.114-.14c.105-.156.18-.255.226-.293.095-.078.19-.096.286-.053.069.032.12.077.151.138a.583.583 0 0 0-.08.127l-.713 1.575c-.156.343-.327.472-.516.386a.392.392 0 0 1-.186-.154c.069-.083.118-.158.148-.224a.443.443 0 0 0 .044-.18.412.412 0 0 0-.045-.177c-.054-.108-.188-.267-.4-.475l-3.763-4.005c-.1-.111-.115-.302-.047-.577a1.28 1.28 0 0 1 .08-.228c.072-.158.158-.235.26-.233l1.142.05c2.096.051 3.318.085 3.664.103l1.07.064c.231.02.38.018.447-.007a.416.416 0 0 0 .165-.108c.043-.046.083-.095.12-.148a.983.983 0 0 1 .114-.132c.089-.079.178-.097.268-.056a.3.3 0 0 1 .152.138.594.594 0 0 0-.079.123l-.835 1.845a.856.856 0 0 1-.188.286c-.065.059-.132.073-.199.043-.116-.053-.19-.115-.222-.19zm-2.098-.955-2.967-.12 2.058 2.128zm-189.653 10.527c-.013-.067-.072-.194-.177-.378l-.858-1.505a.754.754 0 0 1-.114-.342c-.003-.099.05-.18.158-.241a.346.346 0 0 1 .22-.052c.029.107.067.204.117.29a.687.687 0 0 0 .143.188.344.344 0 0 0 .171.073c.14.017.325-.039.554-.17l3.774-2.15c.168-.106.246-.225.232-.357a.758.758 0 0 0-.034-.154 6.396 6.396 0 0 1-.054-.185.704.704 0 0 1-.027-.163c-.003-.096.028-.162.092-.199.116-.066.21-.093.28-.082.013.068.073.195.18.382l.273.48.775 1.274.094.156c.432.758.62 1.401.566 1.931-.055.53-.327.935-.817 1.214a1.856 1.856 0 0 1-1.215.218c-.493-.07-.933-.305-1.32-.704-.016.178-.095.416-.239.713l-.349.717c-.325.671-.418 1.127-.28 1.368.051.09.099.155.143.191l.09.072a.208.208 0 0 1 .048.06c.014.024.01.061-.013.11a.255.255 0 0 1-.108.115.402.402 0 0 1-.21.037.724.724 0 0 1-.284-.073 1.082 1.082 0 0 1-.51-.457 1.246 1.246 0 0 1-.184-.562 1.65 1.65 0 0 1 .065-.516c.05-.174.12-.346.212-.517.091-.17.19-.339.295-.503l.314-.468c.232-.337.367-.578.407-.723.04-.145.038-.255-.006-.332l-.212-.372c-.035-.061-.008-.118.08-.168a.388.388 0 0 1 .368-.024c.04.02.108.108.203.266.094.157.231.318.41.482.177.164.36.28.544.347.363.129.743.08 1.139-.146.332-.189.54-.455.626-.796.096-.388.018-.806-.232-1.257-.168-.295-.325-.466-.47-.514-.139-.05-.327-.012-.564.116l-3.766 2.148c-.195.11-.287.235-.277.372a.895.895 0 0 0 .037.16 4.2 4.2 0 0 1 .055.186.704.704 0 0 1 .027.163c.003.096-.029.163-.095.201-.113.064-.206.091-.277.08zm183.365-2.788c.132.077.23.14.293.19.07-.044.15-.142.239-.294a.463.463 0 0 0 .064-.237c.005-.25-.12-.449-.375-.597a1.098 1.098 0 0 0-1.035-.06 1.81 1.81 0 0 0-.526.371c-.174.17-.36.424-.555.76a3.155 3.155 0 0 0-.384 1.167 3.21 3.21 0 0 0 .086 1.3c.118.426.327.83.626 1.21.3.38.692.711 1.176.993.793.462 1.562.596 2.304.406.756-.19 1.364-.68 1.825-1.474.321-.553.468-1.104.439-1.65a1.658 1.658 0 0 0-.115-.576c-.066-.154-.129-.249-.189-.284a.46.46 0 0 0-.158-.062c-.135-.017-.234.006-.298.066.04.129.068.262.087.4.063.46-.07.972-.398 1.538-.334.574-.804.912-1.41 1.012-.58.098-1.2-.044-1.859-.427-.694-.404-1.15-.884-1.368-1.44a1.893 1.893 0 0 1-.123-.864c.025-.302.128-.607.308-.916.18-.31.368-.512.563-.605a.731.731 0 0 1 .376-.06.968.968 0 0 1 .407.133zm-4.42 15.759c-.168.23-.323.338-.464.322a.28.28 0 0 1-.136-.055c-.08-.059-.122-.118-.127-.178a.994.994 0 0 0 .178-.187.72.72 0 0 0 .11-.21.565.565 0 0 0 .026-.2.461.461 0 0 0-.209-.34l-3.735-2.727a.463.463 0 0 0-.248-.092.35.35 0 0 0-.21.083c-.07.054-.126.1-.168.138-.042.038-.083.07-.123.097-.093.055-.164.064-.215.027-.105-.077-.166-.148-.185-.214a1.32 1.32 0 0 0 .178-.206l.488-.67c.147-.201.38-.307.7-.318l5.763-.216-3.2-2.337a.593.593 0 0 0-.272-.11.33.33 0 0 0-.253.087c-.082.069-.15.132-.208.188a1.16 1.16 0 0 1-.168.14c-.115.081-.214.092-.296.031-.069-.05-.108-.106-.118-.17.047-.04.105-.109.178-.207l1.008-1.382c.225-.306.401-.412.532-.317.11.08.171.152.185.214a.896.896 0 0 0-.168.18c-.055.074-.1.14-.136.197a.406.406 0 0 0-.065.18c-.017.134.053.263.212.385l4.397 3.21c.066.05.094.097.082.145a.759.759 0 0 1-.123.215c-.118.162-.365.248-.74.258l-5.898.242 3.282 2.397c.205.132.394.128.567-.013.062-.055.122-.113.178-.171a1.62 1.62 0 0 1 .16-.149c.116-.094.21-.114.286-.06.082.06.133.123.152.19a1.29 1.29 0 0 0-.178.206zm-173.37-5.82-.045.281c-.062.376-.045.754.05 1.137s.288.778.579 1.184c.29.406.696.726 1.215.96a3.18 3.18 0 0 0 1.69.274c.646-.07 1.258-.31 1.836-.724.767-.549 1.218-1.225 1.353-2.029.131-.769-.057-1.508-.564-2.217a3.18 3.18 0 0 0-1.274-1.058 3.241 3.241 0 0 0-1.694-.275c-.302.032-.61.108-.925.228a4.46 4.46 0 0 0-.99.553 3.245 3.245 0 0 0-.853.889c-.221.345-.347.611-.378.798zm3.764-1.721h.216c.289-.002.56.065.813.2.253.136.487.352.7.65.212.296.334.596.367.9.085.859-.384 1.654-1.409 2.387-.667.478-1.282.706-1.845.684-.58-.027-1.072-.324-1.478-.89-.402-.562-.492-1.138-.27-1.728.101-.271.26-.53.476-.775.216-.245.48-.48.792-.703.312-.224.627-.4.945-.53.318-.13.549-.195.693-.195zm3.772 12.985-.77-.933-.73-.818a.822.822 0 0 1-.19-.325c-.03-.108-.017-.185.038-.234.102-.09.187-.138.255-.142.047.095.105.181.175.26.07.078.134.139.192.184a.444.444 0 0 0 .196.084c.162.03.338-.04.526-.208l3.229-2.88c.196-.176.21-.408.04-.696-.105-.18-.158-.31-.162-.388-.004-.078.017-.137.061-.177.097-.087.178-.129.242-.125a.62.62 0 0 0 .077.12l.857.959c.043.049.103.111.179.188l.256.255c.248.253.496.518.744.796a4.4 4.4 0 0 1 .623.898c.167.322.279.63.335.922.057.293.066.571.03.833a2.842 2.842 0 0 1-.205.738 3.384 3.384 0 0 1-.86 1.142c-.7.626-1.446.964-2.235 1.016-.62.04-1.251-.15-1.895-.569a5.278 5.278 0 0 1-1.008-.9zm.267-1.302c-.158.141-.217.282-.174.423.037.119.198.338.484.658.285.32.592.558.92.713.328.155.648.227.96.214.56-.023 1.134-.295 1.722-.82 1.007-.899 1.348-1.842 1.021-2.828-.118-.358-.346-.726-.683-1.104-.224-.252-.386-.383-.484-.393a.43.43 0 0 0-.276.06 2.224 2.224 0 0 0-.312.242zm160.38 1.305c-.04.044-.108.103-.202.177.007.08.059.163.152.249.054.05.122.056.202.021a.875.875 0 0 0 .268-.213l1.365-1.497a.588.588 0 0 1 .114-.092.307.307 0 0 0-.102-.178c-.073-.067-.163-.077-.272-.03a.932.932 0 0 0-.15.09 1.397 1.397 0 0 1-.16.104.423.423 0 0 1-.19.05c-.071.004-.214-.04-.426-.13l-.998-.394c-.325-.123-1.475-.534-3.452-1.232l-1.07-.402c-.097-.034-.203.013-.32.14a1.306 1.306 0 0 0-.147.194c-.149.239-.194.427-.134.561l2.336 4.975c.138.264.216.456.233.575.01.07.006.13-.01.182a.44.44 0 0 1-.099.158 1.01 1.01 0 0 1-.21.168c.015.072.059.14.13.204.152.14.356.07.61-.208l1.165-1.276a.6.6 0 0 1 .116-.095.305.305 0 0 0-.102-.179c-.077-.07-.173-.084-.287-.038a1.695 1.695 0 0 0-.306.21l-.152.096a.49.49 0 0 1-.113.06.182.182 0 0 1-.094.013.21.21 0 0 1-.097-.058.71.71 0 0 1-.131-.212l-.57-1.164 1.812-1.985 1 .373c.146.041.26.099.342.174.098.089.136.192.113.31a.479.479 0 0 1-.059.156.8.8 0 0 1-.105.143zm-4.685-2.415 2.783 1.034-1.487 1.628zm-141.965 8.708c.306-.326.54-.417.699-.273.092.084.171.174.236.271.064-.007.128-.046.192-.118.084-.092.108-.185.072-.279a.778.778 0 0 0-.214-.285l-1.046-.946c-.16-.144-.256-.247-.289-.307-.067.007-.136.05-.207.128-.072.08-.09.166-.053.26.019.048.047.1.086.156l.121.17a.687.687 0 0 1 .087.147c.055.126.007.272-.143.437l-1.715 1.896c-1.018 1.126-1.978 1.28-2.881.463-.357-.323-.539-.683-.545-1.082-.003-.518.288-1.102.875-1.751l1.544-1.708c.17-.188.335-.294.492-.316a.377.377 0 0 1 .187.018.628.628 0 0 1 .186.124c.068.062.131.138.19.23.064-.007.128-.047.193-.118.146-.162.1-.351-.14-.568l-1.222-1.105c-.16-.144-.256-.246-.29-.307a.366.366 0 0 0-.206.128c-.072.08-.09.167-.053.26.018.048.047.1.086.156.039.057.084.12.135.188.052.07.07.13.056.183a.663.663 0 0 1-.14.216l-1.96 2.167c-.702.774-.989 1.522-.863 2.244.097.572.41 1.098.94 1.577.623.563 1.267.816 1.932.757.672-.057 1.322-.431 1.949-1.123zm138.015 3.03c-.063.027-.175.11-.333.252l-1.292 1.154a.75.75 0 0 1-.31.183c-.097.023-.187-.012-.269-.104a.336.336 0 0 1-.097-.204c.1-.05.185-.11.26-.175a.686.686 0 0 0 .153-.18.343.343 0 0 0 .035-.183c-.012-.14-.106-.31-.28-.506l-2.895-3.24c-.138-.142-.27-.193-.397-.151a.742.742 0 0 0-.144.065 5.25 5.25 0 0 1-.168.09.706.706 0 0 1-.154.062c-.094.023-.165.007-.215-.048-.088-.1-.135-.185-.138-.258.064-.027.176-.111.336-.255l.411-.368 1.084-1.024.134-.125c.65-.58 1.24-.9 1.77-.957.53-.057.982.124 1.357.544.281.315.437.696.468 1.143.034.497-.104.977-.412 1.438.177-.022.427.006.747.084l.774.192c.724.177 1.19.173 1.396-.012a.725.725 0 0 0 .158-.18l.051-.103a.22.22 0 0 1 .048-.06c.021-.019.058-.023.11-.01a.25.25 0 0 1 .135.081.397.397 0 0 1 .081.198.726.726 0 0 1-.012.293c-.051.24-.165.438-.34.594a1.246 1.246 0 0 1-.511.298 1.67 1.67 0 0 1-.519.044 2.604 2.604 0 0 1-.55-.099 7.342 7.342 0 0 1-.553-.183l-.524-.21c-.378-.156-.642-.237-.792-.246-.15-.009-.257.016-.322.075l-.32.286c-.053.047-.114.033-.182-.044a.39.39 0 0 1-.1-.354c.011-.043.083-.128.218-.254.134-.126.263-.293.386-.502.123-.208.198-.41.225-.605.05-.382-.077-.743-.381-1.083-.255-.285-.558-.434-.91-.445-.398-.013-.792.15-1.18.49-.253.226-.388.415-.405.566-.02.147.058.323.232.527l2.888 3.234c.15.167.29.23.422.193a.885.885 0 0 0 .149-.07c.058-.033.115-.064.17-.093a.692.692 0 0 1 .155-.06c.093-.023.165-.006.216.051.087.097.132.182.136.254zm-136.993 3.997 3.514-1.106a56.163 56.163 0 0 0 1.76-.602l.92-.36-1.46-.998a3.888 3.888 0 0 0-.419-.254.577.577 0 0 0-.31-.073c-.16.011-.367.16-.622.448-.033.046-.113.041-.238-.012a.58.58 0 0 1-.114-.069c-.043-.031-.062-.077-.055-.135a.872.872 0 0 1 .06-.217 3.508 3.508 0 0 1 .381-.685c.083-.112.154-.2.213-.26s.114-.1.166-.117c.09-.032.206.004.347.108l3.123 2.306c.084.063.133.18.147.352.013.168-.016.271-.087.31l-6.251 2.089 1.82 1.238c.32.215.584.298.793.249.18-.044.408-.22.683-.532.019-.02.06-.024.121-.01a.496.496 0 0 1 .183.088c.06.044.087.097.079.158a.945.945 0 0 1-.074.235 4.036 4.036 0 0 1-.14.294c-.104.198-.203.36-.298.49a.926.926 0 0 1-.277.267.475.475 0 0 1-.282.06c-.165-.015-.39-.128-.674-.338l-3.016-2.228c-.092-.067-.131-.195-.119-.383.009-.183.051-.288.126-.313zm127.48-3.113c-.253-.369-.294-.616-.118-.74.1-.074.205-.132.314-.175.006-.063-.019-.134-.075-.213-.073-.101-.159-.144-.258-.129a.784.784 0 0 0-.324.15l-1.144.823c-.175.126-.295.198-.361.218-.007.068.02.144.081.23.063.087.144.122.244.106a.802.802 0 0 0 .17-.05l.192-.084a.67.67 0 0 1 .162-.054c.134-.027.267.05.397.232l1.493 2.076c.886 1.231.835 2.203-.153 2.913-.39.282-.781.383-1.172.305-.508-.105-1.018-.513-1.529-1.223l-1.344-1.868c-.149-.207-.217-.39-.206-.548a.37.37 0 0 1 .057-.18.611.611 0 0 1 .16-.154c.075-.054.163-.1.265-.138.006-.064-.019-.135-.075-.213-.127-.177-.322-.171-.584.017l-1.337.962c-.175.126-.295.199-.362.218a.363.363 0 0 0 .082.23.236.236 0 0 0 .244.106.755.755 0 0 0 .17-.05l.213-.094c.078-.036.141-.041.19-.017a.664.664 0 0 1 .18.184l1.707 2.372c.61.847 1.281 1.286 2.013 1.314.58.025 1.16-.17 1.738-.586.683-.492 1.065-1.068 1.147-1.73.087-.67-.143-1.384-.688-2.142zm-117.46 10.673c.184.112.297.195.341.25a.367.367 0 0 0 .18-.165.24.24 0 0 0 .001-.268.75.75 0 0 0-.113-.137 7.357 7.357 0 0 0-.148-.143.911.911 0 0 1-.113-.125c-.075-.116-.054-.269.063-.46l2.273-3.692c.241-.377.48-.493.713-.35.109.068.201.141.278.222a.317.317 0 0 0 .171-.149c.066-.106.073-.203.021-.289a.761.761 0 0 0-.265-.245l-1.472-.907c-.183-.112-.297-.196-.34-.249-.063.021-.122.077-.177.166-.056.092-.058.18-.005.266a.776.776 0 0 0 .113.138c.049.048.098.096.149.143.05.048.087.09.11.128.077.113.056.265-.06.456l-2.275 3.696c-.134.207-.267.333-.398.38a.316.316 0 0 1-.177.014.673.673 0 0 1-.207-.092 1.306 1.306 0 0 1-.244-.2.34.34 0 0 0-.167.151c-.066.106-.073.202-.023.289.05.085.138.167.264.244zm110.173-2.952a.795.795 0 0 1 .17.192c.035.062.05.11.045.145a.197.197 0 0 1-.04.097.58.58 0 0 1-.086.089.566.566 0 0 0-.11.14c-.073.124-.034.317.117.58l.49.858a1.27 1.27 0 0 1-.054.375 2.108 2.108 0 0 1-.245.546c-.294.489-.7.88-1.217 1.176-.518.297-.985.475-1.4.533-.418.06-.809.034-1.176-.076-.736-.221-1.335-.735-1.796-1.54-.284-.497-.458-.983-.52-1.46a3.24 3.24 0 0 1 .088-1.337c.246-.852.786-1.517 1.618-1.993.667-.381 1.233-.546 1.7-.494.37.043.64.21.806.503a.701.701 0 0 1 .093.529.6.6 0 0 1-.304.384c-.142.082-.253.121-.333.118a2.205 2.205 0 0 0-.149-.302.923.923 0 0 0-.268-.294.703.703 0 0 0-.372-.132c-.234-.016-.522.074-.864.27a2.963 2.963 0 0 0-.799.633 1.754 1.754 0 0 0-.38.76c-.129.577.017 1.234.439 1.971.927 1.62 2.081 2.033 3.462 1.243.327-.187.58-.398.757-.634a.674.674 0 0 0 .116-.208l-.607-1.052c-.102-.177-.287-.232-.556-.167-.065.018-.13.038-.196.059l-.197.062a.674.674 0 0 1-.176.03.235.235 0 0 1-.231-.13c-.053-.092-.073-.17-.06-.233.068-.012.195-.072.382-.18zm-104.807 5.97c-.256-.125-.388-.259-.397-.4a.282.282 0 0 1 .031-.144c.044-.089.095-.141.153-.156a.975.975 0 0 0 .216.144c.08.04.154.064.224.073a.46.46 0 0 0 .502-.274l2.046-4.147a.464.464 0 0 0 .048-.26.346.346 0 0 0-.118-.194 3.188 3.188 0 0 0-.165-.14.995.995 0 0 1-.116-.105c-.07-.082-.092-.15-.064-.207.057-.116.117-.19.179-.22.047.04.125.086.234.14l.743.366c.223.11.368.323.435.636l1.2 5.64 1.753-3.553a.593.593 0 0 0 .063-.286.331.331 0 0 0-.13-.235 3.417 3.417 0 0 0-.221-.172 1.152 1.152 0 0 1-.167-.142c-.1-.1-.126-.195-.081-.287.037-.076.086-.124.147-.145.047.04.125.086.234.14l1.535.757c.34.168.475.324.404.469-.06.122-.12.195-.18.22a.881.881 0 0 0-.206-.136 4.538 4.538 0 0 0-.217-.1.408.408 0 0 0-.188-.033c-.135.005-.25.097-.344.275l-2.409 4.883c-.036.073-.078.108-.127.104a.727.727 0 0 1-.233-.084c-.18-.089-.308-.317-.382-.685l-1.25-5.768-1.798 3.644c-.095.224-.059.41.11.556.065.051.132.1.2.146.067.046.125.09.173.133.113.097.149.187.108.27a.372.372 0 0 1-.16.182 1.294 1.294 0 0 0-.235-.14zm95.208.45a.368.368 0 0 0-.182.187c.03.055.075.146.13.274.058.128.1.262.124.403a.605.605 0 0 1-.054.39c-.11.214-.443.457-1 .729l-.58.276c-.228.1-.398.142-.512.125-.133-.022-.242-.13-.329-.323l-.777-1.75c.676-.215 1.126-.371 1.348-.47a7.36 7.36 0 0 0 .58-.285.972.972 0 0 0-.246-.627c-.066-.072-.12-.108-.165-.11a8.642 8.642 0 0 1-1.524.858l-.23.097-.735-1.653a1.438 1.438 0 0 1-.098-.284.384.384 0 0 1 .03-.24c.037-.08.193-.182.467-.304l.865-.384c.182-.08.337-.127.466-.14a.694.694 0 0 1 .387.08c.128.065.29.275.488.63.009.013.04.023.09.033.054.009.134-.011.243-.059.074-.033.114-.079.12-.137a1.917 1.917 0 0 0-.037-.328 2.69 2.69 0 0 0-.211-.649c-.117-.264-.247-.41-.39-.44-.08-.018-.239.026-.476.132l-3.97 1.763a.539.539 0 0 1-.15.042c-.02.066-.007.151.04.257.036.08.108.125.217.132a.97.97 0 0 0 .155-.011l.178-.028c.062-.01.123-.018.183-.023.209-.019.363.085.463.31l1.745 3.932c.102.228.112.417.03.568a.444.444 0 0 1-.131.156 1.11 1.11 0 0 1-.478.189.387.387 0 0 0 .037.252c.082.184.277.208.585.07l4.285-1.902c.026-.012.041-.043.046-.094.008-.178-.06-.428-.203-.751-.207-.466-.406-.778-.596-.935-.034-.025-.11-.011-.228.041zm-83.388 4.889 1.121.458c.479.175.917.28 1.313.317.766.065 1.412-.067 1.94-.396.67-.418 1.167-1.068 1.49-1.951.177-.487.25-.958.216-1.413a2.833 2.833 0 0 0-.168-.746 2.524 2.524 0 0 0-.42-.721 3.426 3.426 0 0 0-.731-.654c-.3-.203-.624-.37-.974-.497-.35-.128-.693-.244-1.032-.35l-.346-.103a5.099 5.099 0 0 1-.246-.081l-1.209-.441a.506.506 0 0 1-.124-.068c-.058.027-.11.102-.154.224-.02.056-.01.117.03.185.04.067.148.156.325.265.286.174.384.385.294.632l-1.484 4.065c-.086.237-.208.381-.365.432a.444.444 0 0 1-.212.018 1.36 1.36 0 0 1-.533-.217c-.059.036-.111.117-.158.245-.025.069 0 .144.076.224a.822.822 0 0 0 .322.197zm.787-.36c-.104-.104-.12-.256-.046-.455l1.46-4.002c.056-.154.11-.274.16-.36a.431.431 0 0 1 .215-.183c.092-.038.296.001.612.117.476.174.85.39 1.124.65.754.715.9 1.707.437 2.976-.27.74-.646 1.251-1.13 1.536a2.044 2.044 0 0 1-.946.265 2.911 2.911 0 0 1-1.148-.193c-.403-.147-.65-.264-.738-.351zm71.575-2.978c-.206-.614-.555-.927-1.044-.936a1.668 1.668 0 0 0-.554.096 1.864 1.864 0 0 0-.497.243 1.14 1.14 0 0 0-.3.306.812.812 0 0 0-.085.727c.133.394.536.635 1.209.72l.583.069c.282.03.556.067.822.107.266.041.511.108.736.2.493.199.821.54.983 1.023.174.518.087 1.01-.257 1.479-.323.436-.802.76-1.439.974-.504.169-.976.239-1.416.21-.323-.018-.579-.11-.768-.275a.784.784 0 0 1-.222-.353c-.1-.3-.118-.606-.055-.917a.269.269 0 0 1 .178-.162c.172-.058.288-.04.35.053.19.453.446.743.768.872.321.128.708.116 1.16-.036.518-.173.809-.458.872-.856a.931.931 0 0 0-.046-.448.787.787 0 0 0-.272-.386 1.61 1.61 0 0 0-.46-.235 4.41 4.41 0 0 0-1.021-.178 8.9 8.9 0 0 1-.97-.114 2.644 2.644 0 0 1-.661-.217 1.725 1.725 0 0 1-.905-1.046c-.165-.49-.086-.955.237-1.39.31-.422.786-.739 1.428-.954.813-.272 1.4-.283 1.763-.03.132.09.23.233.296.429.065.196.104.373.116.53.013.157.009.263-.012.318-.034.092-.123.162-.267.21-.144.048-.228.037-.25-.033zm-61.672 6.035-.148-.243c-.099-.163-.176-.446-.233-.853a3.242 3.242 0 0 1 .069-1.228 4.49 4.49 0 0 1 .393-1.065c.16-.296.344-.555.553-.776a3.236 3.236 0 0 1 1.466-.893 3.181 3.181 0 0 1 1.655-.025c.847.208 1.47.647 1.872 1.317.42.698.517 1.505.292 2.42-.17.69-.477 1.272-.923 1.745a3.18 3.18 0 0 1-1.461.892c-.547.16-1.063.18-1.548.061-.485-.12-.888-.293-1.21-.523a2.799 2.799 0 0 1-.777-.829zm1.752-4.142-.163.142c-.11.094-.242.293-.4.6-.156.305-.28.643-.372 1.016-.091.373-.14.722-.144 1.05-.004.326.043.625.142.898.216.592.66.971 1.33 1.136.677.166 1.244.07 1.702-.286.441-.35.76-.923.956-1.72.3-1.223.14-2.133-.483-2.73a1.89 1.89 0 0 0-.866-.444c-.355-.087-.673-.1-.953-.038a1.71 1.71 0 0 0-.749.376zm37.492 7.649c.03.207.233.283.608.228l1.853-.275a.536.536 0 0 1 .146 0 .28.28 0 0 0 .042-.182.263.263 0 0 0-.193-.23.698.698 0 0 0-.177-.035 11.22 11.22 0 0 1-.28-.03.614.614 0 0 1-.3-.11c-.063-.048-.101-.152-.114-.314l-.337-4.625 2.105 3.432c.125.19.25.344.373.46a.996.996 0 0 0 .246.171c.088.044.17.059.246.048a.34.34 0 0 0 .163-.058l1.298-4.568.142.696.806 3.564c.057.264.035.452-.066.564a.406.406 0 0 1-.184.109c-.075.023-.148.04-.22.05a.95.95 0 0 1-.238 0 .436.436 0 0 0-.032.106.386.386 0 0 0-.01.133c.03.204.216.281.558.23l1.915-.283a.935.935 0 0 1 .2-.008.29.29 0 0 0 .037-.195.42.42 0 0 0-.057-.152c-.03-.051-.1-.086-.209-.105l-.172-.03c-.062-.01-.12-.02-.175-.025a.396.396 0 0 1-.37-.324l-1.134-4.528c-.043-.174-.034-.296.027-.365a.273.273 0 0 1 .125-.082.982.982 0 0 1 .19-.046c.07-.01.165-.008.281.006.035-.054.044-.134.03-.24-.03-.2-.234-.27-.612-.215l-.815.12a1.384 1.384 0 0 0-.4.112.39.39 0 0 0-.205.27l-1.067 3.927-2.106-3.436c-.125-.19-.397-.254-.814-.193l-1.244.185a.579.579 0 0 1-.145 0c-.032.056-.04.136-.026.238.016.102.07.167.163.196a.534.534 0 0 0 .157.029l.21.012c.08.005.15.023.21.055.059.031.09.082.095.153l.228 4.525c.023.332-.01.553-.099.663a.295.295 0 0 1-.153.096c-.059.014-.13.028-.214.04a.938.938 0 0 1-.253.003.354.354 0 0 0-.033.233zm-17.067-4.26c-.01.152-.024.267-.041.346.07.045.193.073.368.085a.465.465 0 0 0 .242-.046c.226-.106.35-.307.37-.6a1.097 1.097 0 0 0-.4-.956 1.807 1.807 0 0 0-.566-.309c-.23-.082-.54-.136-.928-.163a3.144 3.144 0 0 0-1.216.17c-.423.14-.8.357-1.13.65-.33.293-.6.657-.81 1.094a4.084 4.084 0 0 0-.373 1.494c-.065.914.152 1.664.65 2.246.503.595 1.212.925 2.127.99.638.045 1.197-.067 1.675-.333a1.69 1.69 0 0 0 .466-.357c.11-.127.167-.225.172-.295a.461.461 0 0 0-.014-.169c-.044-.128-.108-.207-.191-.238a2.363 2.363 0 0 1-.32.253c-.385.26-.903.366-1.556.32-.663-.047-1.173-.32-1.53-.819-.343-.478-.488-1.097-.435-1.857.057-.802.287-1.422.69-1.862.2-.22.44-.383.722-.493.281-.109.6-.15.958-.126.357.026.62.106.79.24.097.078.17.181.22.31.051.13.07.272.06.425zm6.596 4.402-.208-.193c-.138-.13-.289-.383-.452-.759a3.243 3.243 0 0 1-.264-1.203 4.486 4.486 0 0 1 .093-1.13c.075-.329.183-.627.325-.897a3.198 3.198 0 0 1 1.172-1.252 3.178 3.178 0 0 1 1.588-.47c.871-.027 1.59.229 2.156.767.592.56.903 1.31.932 2.253.021.71-.119 1.353-.421 1.929a3.19 3.19 0 0 1-1.169 1.251c-.483.3-.975.459-1.474.474-.5.015-.935-.044-1.306-.179a2.8 2.8 0 0 1-.972-.59zm.577-4.46-.12.181c-.08.12-.154.348-.223.684a4.663 4.663 0 0 0-.086 1.08c.012.384.06.734.143 1.05a2.5 2.5 0 0 0 .378.827c.367.512.895.759 1.586.737.696-.021 1.217-.265 1.562-.731.332-.456.485-1.093.46-1.914-.039-1.26-.438-2.093-1.198-2.5a1.895 1.895 0 0 0-.954-.196c-.365.012-.674.085-.928.22a1.69 1.69 0 0 0-.62.563z" data-paper-data="{&quot;isBaseLogoContainer&quot;:true}"/>
    </g>
  </g>
</svg>
